<svg width="26" height="26" viewBox="0 0 26 26" fill="none" xmlns="http://www.w3.org/2000/svg">
<g clip-path="url(#clip0_96_1018)">
<path d="M22.6484 3.65625H18.7271L19.101 1.52344H20.5156C20.9363 1.52344 21.2773 1.18239 21.2773 0.761719C21.2773 0.341047 20.9363 0 20.5156 0H18.4613C18.0913 0 17.7749 0.265789 17.711 0.630195L17.1805 3.65625H3.35156C2.93089 3.65625 2.58984 3.9973 2.58984 4.41797V8.07422C2.58984 8.49489 2.93089 8.83594 3.35156 8.83594H4.64638C4.85164 10.5199 4.99611 11.7043 5.15932 13.0421C8.44289 13.7925 8.99813 15.8438 13 15.8438C16.9943 15.8438 17.5649 13.7917 20.8407 13.0415C20.9493 12.1512 21.2449 9.72694 21.3536 8.83594H22.6484C23.0691 8.83594 23.4102 8.49489 23.4102 8.07422V4.41797C23.4102 3.9973 23.0691 3.65625 22.6484 3.65625Z" fill="#F5BA3C"/>
<path d="M13 17.3673C8.84613 17.3673 7.77947 15.4402 5.35822 14.6725L6.2867 22.2837C6.2867 22.2837 6.2867 22.2838 6.2867 22.2838L6.65791 25.3306C6.70453 25.7127 7.02902 26.0001 7.41404 26.0001H18.5859C18.9709 26.0001 19.2954 25.7127 19.3421 25.3306L19.4666 24.3085C19.4666 24.3085 20.6418 14.6715 20.6418 14.6714C18.2242 15.4387 17.1537 17.3673 13 17.3673ZM17.9114 24.4766H8.08857L7.90297 22.9532H18.0971C18.0282 23.5181 17.9744 23.9598 17.9114 24.4766Z" fill="#F5BA3C"/>
</g>
<defs>
<clipPath id="clip0_96_1018">
<rect width="26" height="26" fill="white"/>
</clipPath>
</defs>
</svg>
