<svg width="25" height="26" viewBox="0 0 25 26" fill="none" xmlns="http://www.w3.org/2000/svg">
<path d="M17.978 0.761719C17.978 0.341047 17.6369 0 17.2162 0H14.1694C13.7487 0 13.4076 0.341047 13.4076 0.761719V2.08203H17.978V0.761719Z" fill="#0CD4DC"/>
<path d="M4.54848 22.0029C3.87776 21.6072 3.25873 21.1276 2.70862 20.5775C2.66845 20.5374 2.62925 20.4964 2.58995 20.4556C1.68294 20.9074 0.863332 21.5388 0.184945 22.3251C-0.0616484 22.611 -0.0616484 23.0344 0.184945 23.3203C1.65405 25.0232 3.78544 25.9999 6.03251 25.9999C6.70277 25.9999 7.36247 25.9124 7.99764 25.7452C7.20022 24.9039 6.54906 23.9405 6.06557 22.8979L4.54848 22.0029Z" fill="#0CD4DC"/>
<path d="M5.32263 20.6909C5.16288 19.9578 5.07949 19.2035 5.07949 18.4393C5.07949 16.7098 5.50057 15.0418 6.26874 13.5588C5.03872 12.9447 3.65295 12.6637 2.24945 12.7671C1.87291 12.7948 1.5735 13.0942 1.54578 13.4708C1.38049 15.7138 2.197 17.9115 3.78589 19.5004C4.25069 19.9652 4.76775 20.3635 5.32263 20.6909Z" fill="#0CD4DC"/>
<path d="M20.0645 10.468C18.8431 9.79692 18.1426 8.61275 18.1426 7.21921V5.1256C18.5337 5.0934 18.8411 4.76642 18.8411 4.36708C18.8411 3.96702 18.5325 3.63964 18.1405 3.60846C18.1403 3.60643 13.2451 3.60643 13.245 3.60846C12.853 3.63964 12.5443 3.96702 12.5443 4.36708C12.5443 4.76642 12.8518 5.0934 13.2429 5.1256V7.21921C13.2429 8.6127 12.5423 9.79686 11.3209 10.468C9.32179 11.5666 7.84294 13.3519 7.11285 15.4374H24.2726C23.5425 13.3518 22.0637 11.5665 20.0645 10.468Z" fill="#0CD4DC"/>
<path d="M24.661 16.9609H6.72452C6.64474 17.4451 6.60295 17.9391 6.60295 18.4393C6.60295 21.3819 8.03803 24.1558 10.4418 25.8597C10.5706 25.9509 10.7245 26 10.8823 26H20.5032C20.661 26 20.8149 25.951 20.9437 25.8597C23.3475 24.1558 24.7825 21.3819 24.7825 18.4393C24.7826 17.9391 24.7408 17.4451 24.661 16.9609Z" fill="#0CD4DC"/>
</svg>
