<svg width="21" height="27" viewBox="0 0 21 27" fill="none" xmlns="http://www.w3.org/2000/svg">
<path d="M11.0152 7.64853C11.4792 6.87356 12.2136 5.76441 13.1411 4.70013H13.1422C13.9277 3.79687 15.4661 2.63757 15.4661 2.63757C15.6974 2.46283 15.6725 2.21946 15.4096 2.09698L13.5503 1.22803C13.2874 1.10503 12.93 1.19478 12.7558 1.42653C12.7558 1.42653 11.3805 3.39935 9.76189 7.59891C4.75716 5.33521 1.90735e-05 8.50587 1.90735e-05 14.0194C1.90735e-05 19.7784 4.4309 28.5265 10.4228 25.8859C16.7337 28.6168 20.8488 19.779 20.8488 14.0194C20.8488 8.45836 16.5727 5.19795 11.0152 7.64853Z" fill="#F8644A"/>
<path d="M9.89434 5.78339C10.1836 5.75911 10.4392 5.50307 10.4624 5.2143C10.4624 5.2143 10.6482 2.96222 9.0787 1.39114C7.50442 -0.18046 5.25652 0.00694965 5.25652 0.00694965C4.96721 0.0312337 4.7117 0.287272 4.68794 0.576042C4.68794 0.576042 4.49894 2.82918 6.07058 4.40078C7.64115 5.9708 9.89434 5.78339 9.89434 5.78339Z" fill="#F8644A"/>
</svg>
