<svg width="25" height="27" viewBox="0 0 25 27" fill="none" xmlns="http://www.w3.org/2000/svg">
<path d="M21.2486 9.04061C18.988 9.98256 16.6324 10.5781 14.2187 10.8204L15.3566 8.84954L19.2367 9.08246C19.6677 9.10831 20.0381 8.77991 20.064 8.34894C20.0898 7.91796 19.7614 7.5476 19.3304 7.5217L16.2307 7.33563L16.9201 6.14143L20.8003 6.37435C21.2313 6.4002 21.6017 6.0718 21.6275 5.64082C21.6534 5.20985 21.325 4.83949 20.894 4.81359L17.7942 4.62752L18.6602 3.12758C19.5237 1.63187 21.4362 1.11943 22.9319 1.98294C24.4276 2.84651 24.9401 4.75902 24.0765 6.25474L22.8544 8.3715L21.2486 9.04061Z" fill="#AE80FF"/>
<path d="M11.7269 10.945C10.6895 10.945 9.66034 10.8809 8.64214 10.7537C8.61472 10.5608 8.59971 10.3637 8.59971 10.1632C8.59971 7.86041 10.4665 5.99365 12.7692 5.99365C13.5361 5.99365 14.2541 6.20161 14.8714 6.56285L12.3458 10.9374C12.1398 10.9424 11.9335 10.945 11.7269 10.945Z" fill="#AE80FF"/>
<path d="M7.58798 7.7103C7.01029 6.18259 6.90449 5.03299 6.90298 5.01538C6.86634 4.58518 6.4878 4.26715 6.05776 4.30259C5.62757 4.33918 5.30845 4.71762 5.34503 5.14781C5.35457 5.26008 5.5717 7.61967 7.03724 10.2166C7.03813 10.3119 7.04203 10.4066 7.04756 10.5008C5.39575 10.183 3.77739 9.69578 2.20506 9.04064L1.26405 8.64855C1.38768 8.34548 1.56009 8.06299 1.77612 7.81381C0.714818 7.34323 3.8147e-06 6.28646 3.8147e-06 5.08162C3.8147e-06 3.42913 1.34437 2.08477 2.99686 2.08477C3.2587 2.08477 3.51789 2.1199 3.77161 2.18947C4.12597 0.912763 5.28708 0 6.6452 0C7.96793 0 9.11309 0.862312 9.49893 2.09842C9.59108 2.0893 9.68192 2.08477 9.77235 2.08477C11.2014 2.08477 12.3992 3.09046 12.6972 4.43107C10.4437 4.45895 8.49929 5.79341 7.58798 7.7103Z" fill="#AE80FF"/>
<path d="M1.60368 10.4841C4.82793 11.8276 8.23386 12.5087 11.7268 12.5087C15.2198 12.5087 18.6258 11.8276 21.85 10.4841C22.3984 10.2556 22.9913 10.6982 22.928 11.289C22.6675 13.7199 21.7248 22.6131 21.5139 24.589C21.3863 25.7839 20.3837 26.6851 19.1818 26.6851H4.27192C3.06995 26.6851 2.06738 25.7839 1.93979 24.5889C1.72887 22.6131 0.786137 13.7198 0.525698 11.289C0.462372 10.6982 1.05523 10.2556 1.60368 10.4841ZM5.73313 21.4732C5.73313 21.905 6.08317 22.255 6.51492 22.255H16.9388C17.3705 22.255 17.7205 21.905 17.7205 21.4732V17.3037C17.7205 16.8719 17.3705 16.5219 16.9388 16.5219H6.51492C6.08317 16.5219 5.73313 16.8719 5.73313 17.3037V21.4732Z" fill="#AE80FF"/>
<path d="M16.1569 18.0854H7.29667V20.6914H16.1569V18.0854Z" fill="#AE80FF"/>
</svg>
