<svg width="37" height="37" viewBox="0 0 37 37" fill="none" xmlns="http://www.w3.org/2000/svg">
<g clip-path="url(#clip0_160_1480)">
<path d="M32.7091 2.32465C29.8818 0.692821 25.9843 0.624048 22.5396 2.1456C19.3521 3.55417 17.0544 6.65785 15.6962 8.9903C15.0849 8.84122 14.4306 9.1319 14.1467 9.72352C13.8751 10.2892 14.0338 10.9456 14.4858 11.3377C14.3619 11.6134 14.2863 11.7986 14.2577 11.8707L7.66086 26.3606C6.9957 26.0542 6.20325 26.3272 5.87511 26.9883C5.54086 27.6616 5.81524 28.4786 6.48852 28.8135L6.53344 28.836L5.04941 32.0976H1.36158C0.609987 32.0976 0 32.7076 0 33.4592C0 34.2108 0.609987 34.8208 1.36158 34.8208H8.16947C8.92106 34.8208 9.53105 34.2108 9.53105 33.4592C9.53105 32.7076 8.92106 32.0976 8.16947 32.0976H8.04147L8.98571 30.0233C9.1103 30.0594 9.23624 30.0838 9.36218 30.0838C9.86253 30.0838 10.3446 29.8068 10.5829 29.3282C10.8947 28.7006 10.6727 27.9537 10.0968 27.5833L16.9326 12.5686C17.1171 12.6536 17.3097 12.6959 17.501 12.6959C18.0082 12.6959 18.495 12.4114 18.7292 11.9232C19.041 11.2744 18.7877 10.5051 18.1709 10.1552C19.3357 8.19243 21.2005 5.71504 23.6411 4.63667C26.2648 3.47728 29.2903 3.495 31.3483 4.68294C32.8617 5.55642 33.7311 6.9459 33.9339 8.81395C34.3138 12.3126 33.9917 14.6585 32.9795 15.7879C32.8861 15.8921 32.7834 15.9813 32.6785 16.0657V19.1135C33.5173 18.8303 34.3226 18.3681 35.0061 17.6064C36.5801 15.8533 37.1145 12.881 36.6414 8.52049C36.3487 5.81848 34.9517 3.61817 32.7091 2.32465Z" fill="#FF7EB6"/>
<path d="M28.8315 25.2899C29.7199 25.2899 30.56 25.4921 31.3164 25.8447V19.431V16.6684V15.0781C31.3164 14.3259 31.3878 14.3973 30.6356 14.3973H27.969C27.2167 14.3973 19.6293 15.0216 17.625 24.9291L16.339 33.1189C16.339 33.8711 16.9483 34.8209 17.7006 34.8209H24.162C23.3845 33.8195 22.9168 32.5668 22.9168 31.2045C22.9168 27.9429 25.5705 25.2899 28.8315 25.2899Z" fill="#FF7EB6"/>
<path d="M31.9972 27.9393C31.7882 27.7371 31.5608 27.5547 31.3164 27.3948C30.6009 26.9264 29.7479 26.6514 28.8316 26.6514C26.3208 26.6514 24.2784 28.6938 24.2784 31.2045C24.2784 32.679 24.9865 33.9889 26.0771 34.8208C26.457 35.1108 26.8825 35.3416 27.342 35.5016C27.8097 35.6643 28.3095 35.7569 28.8316 35.7569C29.3538 35.7569 29.8535 35.6643 30.3212 35.5016C30.8033 35.3341 31.2492 35.0883 31.6426 34.7786C32.013 34.4872 32.3391 34.1421 32.604 33.7513C33.0968 33.0235 33.3855 32.1467 33.3855 31.2038C33.3855 30.312 33.1241 29.482 32.6796 28.7795C32.4839 28.4731 32.2565 28.1906 31.9972 27.9393ZM28.8315 28.9204C30.0923 28.9204 31.1149 29.9429 31.1149 31.2038C31.1149 32.4646 30.0923 33.4872 28.8315 33.4872C27.5706 33.4872 26.5482 32.4646 26.5482 31.2038C26.5482 29.9429 27.57 28.9204 28.8315 28.9204Z" fill="#FF7EB6"/>
</g>
<defs>
<clipPath id="clip0_160_1480">
<rect width="36.8077" height="36.8077" fill="white"/>
</clipPath>
</defs>
</svg>
